<?xml version="1.0" encoding="UTF-8" standalone="no"?>
<!-- Created with Inkscape (http://www.inkscape.org/) -->

<svg
   width="32"
   height="32"
   viewBox="0 0 8.4666666 8.4666666"
   version="1.1"
   id="svg1"
   inkscape:version="1.4 (e7c3feb1, 2024-10-09)"
   sodipodi:docname="indexed-icon.svg"
   inkscape:export-filename="indexed-icon.svg"
   inkscape:export-xdpi="96"
   inkscape:export-ydpi="96"
   xmlns:inkscape="http://www.inkscape.org/namespaces/inkscape"
   xmlns:sodipodi="http://sodipodi.sourceforge.net/DTD/sodipodi-0.dtd"
   xmlns="http://www.w3.org/2000/svg"
   xmlns:svg="http://www.w3.org/2000/svg">
  <sodipodi:namedview
     id="namedview1"
     pagecolor="#ffffff"
     bordercolor="#000000"
     borderopacity="0.25"
     inkscape:showpageshadow="2"
     inkscape:pageopacity="0.0"
     inkscape:pagecheckerboard="0"
     inkscape:deskcolor="#d1d1d1"
     inkscape:document-units="px"
     inkscape:zoom="10.4843"
     inkscape:cx="18.69462"
     inkscape:cy="21.651422"
     inkscape:window-width="1440"
     inkscape:window-height="847"
     inkscape:window-x="0"
     inkscape:window-y="25"
     inkscape:window-maximized="0"
     inkscape:current-layer="layer1" />
  <defs
     id="defs1">
    <inkscape:path-effect
       effect="fillet_chamfer"
       id="path-effect8"
       is_visible="true"
       lpeversion="1"
       nodesatellites_param="F,0,0,1,0,0.9436743,0,1 @ F,0,0,1,0,0,0,1 @ F,0,0,1,0,0.9436743,0,1 @ F,0,0,1,0,0,0,1 @ F,0,0,1,0,0,0,1 @ F,0,0,1,0,0,0,1"
       radius="0"
       unit="px"
       method="auto"
       mode="F"
       chamfer_steps="1"
       flexible="false"
       use_knot_distance="true"
       apply_no_radius="true"
       apply_with_radius="true"
       only_selected="false"
       hide_knots="false" />
  </defs>
  <g
     inkscape:label="Layer 1"
     inkscape:groupmode="layer"
     id="layer1"
     transform="matrix(1.2688776,0,0,1.2688776,-1.578531,0.69941442)">
    <g
       inkscape:label="Flashy"
       inkscape:groupmode="layer"
       id="layer1-9"
       transform="matrix(0.05669645,0,0,0.05669645,-6.0224448,-1.7693883)">
      <g
         id="g12"
         inkscape:label="right arm"
         transform="matrix(-3.0370664,0,0,2.6952612,782.6575,-428.83729)"
         style="display:inline;fill:#d8efec;fill-opacity:1;stroke:#000000;stroke-width:0.601103;stroke-dasharray:none;stroke-opacity:1">
        <path
           id="rect11"
           style="fill:#d8efec;fill-opacity:1;stroke:#000000;stroke-width:0.602172;stroke-dasharray:none;stroke-opacity:1"
           d="m 54.396325,265.09198 c 0.240354,0.16211 0.397761,0.43681 0.397761,0.74978 0,0.50074 -0.40314,0.90401 -0.903881,0.90401 l -7.391802,-7e-5 5.415989,8.39481 c 0.300079,0.46512 0.165272,1.01432 -0.302414,1.23134 -0.467686,0.21702 -1.085805,0.0173 -1.385884,-0.44785 l -6.160238,-9.54818 -3.81e-4,-7.2e-4 c -0.109171,-0.1494 -0.174266,-0.33329 -0.174266,-0.53331 0,-0.50074 0.40304,-0.90385 0.90378,-0.90385 l 9.095264,4e-5 c 0.187778,0 0.36186,0.0567 0.506072,0.154 z"
           transform="matrix(0.80559555,-0.59246588,0.52258641,0.85258633,0,0)" />
      </g>
      <rect
         style="display:inline;fill:#d8efec;fill-opacity:1;stroke:#000000;stroke-width:0.445108;stroke-dasharray:none;stroke-opacity:1"
         id="rect7"
         width="32.852383"
         height="15.187495"
         x="174.66339"
         y="181.91885"
         inkscape:label="head"
         transform="matrix(3.5465529,0,0,3.5465529,-490.716,-587.88375)" />
      <g
         id="g17"
         inkscape:label="left arm"
         transform="matrix(2.9789944,0,0,-3.197908,-316.78001,831.3427)"
         style="display:inline;fill:#d8efec;fill-opacity:1;stroke:#000000;stroke-width:0.557197;stroke-dasharray:none;stroke-opacity:1">
        <path
           id="path18"
           style="display:inline;fill:#d8efec;fill-opacity:1;stroke:#000000;stroke-width:1.71979;stroke-dasharray:none;stroke-opacity:1"
           d="m 140.40999,65.908487 v 5.2e-4 c -0.38357,0.016 -0.76652,0.10807 -1.12758,0.28267 l -29.64942,14.36298 h -5.2e-4 c -0.49466,0.20051 -0.93704,0.57801 -1.2485,1.12345 -0.77954,1.36528 -0.43998,3.22825 0.76171,4.17701 l 19.34305,15.270943 v -7.150493 l -12.44061,-9.82164 26.06668,-12.62717 c 1.44428,-0.6996 1.97515,-2.45219 1.19063,-3.93 -0.58841,-1.10833 -1.74474,-1.73797 -2.89544,-1.68827 z"
           transform="matrix(0.33568375,0,0,-0.31270443,106.35177,258.66155)" />
      </g>
      <g
         id="g22"
         inkscape:label="whole face">
        <circle
           style="fill:#000000;fill-opacity:1;stroke-width:0.0225571"
           id="path4"
           cx="190.90475"
           cy="194.2957"
           r="0.85784477"
           inkscape:label="nose"
           transform="matrix(3.5465529,0,0,3.5465529,-490.71596,-587.88375)" />
        <circle
           style="fill:#000000;fill-opacity:1;stroke:none;stroke-width:0.458518;stroke-dasharray:none;stroke-opacity:1"
           id="circle5"
           cx="194.78535"
           cy="190.71106"
           r="3.65012"
           transform="matrix(3.3542837,0,0,3.3542837,-450.33979,-555.09658)" />
        <circle
           style="fill:none;fill-opacity:1;stroke:#000000;stroke-width:0.48492;stroke-dasharray:none;stroke-opacity:1"
           id="path3"
           cx="194.83897"
           cy="189.73395"
           r="3.860301"
           transform="matrix(3.5465529,0,0,3.5465529,-489.1069,-588.25543)" />
        <g
           id="g5"
           inkscape:label="right eye"
           transform="matrix(3.3542837,0,0,3.3542837,-450.33979,-555.09658)" />
        <g
           id="g7"
           inkscape:label="left eye"
           transform="matrix(3.3542837,0,0,3.3542837,-480.5593,-555.09658)">
          <circle
             style="fill:#000000;fill-opacity:1;stroke:none;stroke-width:0.458518;stroke-dasharray:none;stroke-opacity:1"
             id="circle6"
             cx="194.78535"
             cy="190.71106"
             r="3.65012"
             transform="translate(1.9707831e-6)" />
          <circle
             style="fill:none;fill-opacity:1;stroke:#000000;stroke-width:0.48492;stroke-dasharray:none;stroke-opacity:1"
             id="circle7"
             cx="194.83897"
             cy="189.73395"
             r="3.860301"
             transform="matrix(1.0573205,0,0,1.0573205,-11.557492,-9.885519)" />
        </g>
        <rect
           style="fill:#e7a4a4;fill-opacity:1;stroke:none;stroke-width:0.479563;stroke-dasharray:none;stroke-opacity:1"
           id="rect8"
           width="32.38316"
           height="1.4715892"
           x="174.8824"
           y="183.60497"
           transform="matrix(3.5465529,0,0,3.5465529,-490.71596,-587.88375)" />
        <path
           sodipodi:type="star"
           style="fill:#e7a4a4;fill-opacity:1;stroke:none;stroke-width:0.48492;stroke-dasharray:none;stroke-opacity:1"
           id="path8"
           inkscape:flatsided="false"
           sodipodi:sides="3"
           sodipodi:cx="177.66968"
           sodipodi:cy="188.01389"
           sodipodi:r1="1.0896612"
           sodipodi:r2="0.54483062"
           sodipodi:arg1="0.52359878"
           sodipodi:arg2="1.5707963"
           inkscape:rounded="0"
           inkscape:randomized="0"
           d="m 177.66968,188.55872 h 0 a 0.54483061,0.54483061 60 0 1 -0.47184,-0.81725 l 0.47184,-0.81725 0.47183,0.81725 0,0 a 0.54483061,0.54483061 120 0 1 -0.47183,0.81725 z"
           inkscape:transform-center-y="-0.96613535"
           inkscape:path-effect="#path-effect8"
           transform="matrix(3.5465529,0,0,3.5465529,-490.71596,-583.73499)" />
      </g>
    </g>
  </g>
</svg>
