<?xml version="1.0" encoding="UTF-8" standalone="no"?>
<!-- Created with Inkscape (http://www.inkscape.org/) -->

<svg
   width="1110.6614"
   height="192.17842"
   viewBox="0 0 293.86316 50.847209"
   version="1.1"
   id="svg1"
   xmlns="http://www.w3.org/2000/svg"
   xmlns:svg="http://www.w3.org/2000/svg">
  <defs
     id="defs1" />
  <g
     id="layer1"
     transform="translate(-11.818782,-67.180722)">
    <g
       id="g2"
       transform="matrix(3.546553,0,0,3.546553,-490.71597,-587.88375)">
      <path
         id="text1"
         style="font-size:4.9389px;line-height:40;font-family:'Solar Rhapsody';-inkscape-font-specification:'Solar Rhapsody, Normal';text-align:center;letter-spacing:0.939271px;writing-mode:lr-tb;direction:ltr;text-anchor:middle;opacity:0.69;fill:#c8e2f7;fill-opacity:0.98;stroke-width:0.0799999"
         d="m 153.1059,184.70449 -0.36897,2.99 h 2.7156 z m 8.87181,0.69453 -0.28112,2.29547 h 1.88516 l 0.28112,-2.29547 z m 5.90041,0 -0.28267,2.29547 h 1.88723 l 0.0656,-0.53434 h 1.05833 c 1.0914,0 1.91547,0.14056 2.4722,0.42168 0.0627,0.0325 0.11839,0.0758 0.17828,0.11266 h 2.57814 c -0.43917,-0.68632 -0.98545,-1.2272 -1.64848,-1.60921 -0.45199,-0.26458 -0.94533,-0.44373 -1.48001,-0.53743 -0.52365,-0.0992 -1.27331,-0.14883 -2.24896,-0.14883 z m 13.06019,0 -0.28267,2.29547 h 1.88722 l 0.0656,-0.53434 h 4.68809 l 0.21497,-1.76113 z m 9.02581,0 1.08675,2.29547 h 1.9513 l -1.02887,-2.29547 z m 6.96184,0 -1.56062,2.29547 h 2.17402 l 1.61903,-2.29547 z m 5.26377,0 -0.28267,2.29547 h 1.88722 l 0.0656,-0.53434 h 4.68757 l 0.21497,-1.76113 z m 9.94306,0 -0.28267,2.29547 h 1.88722 l 0.0656,-0.53434 h 1.05833 c 1.09141,0 1.91548,0.14056 2.4722,0.42168 0.0627,0.0325 0.1184,0.0758 0.17829,0.11266 h 2.57814 c -0.43918,-0.68632 -0.98545,-1.2272 -1.64848,-1.60921 -0.452,-0.26458 -0.94534,-0.44373 -1.48002,-0.53743 -0.52365,-0.0992 -1.27331,-0.14883 -2.24895,-0.14883 z m -63.90995,0.28726 c -0.26458,0 -0.49333,0.0965 -0.68626,0.28939 -0.18741,0.18742 -0.28112,0.41617 -0.28112,0.68627 0,0.27009 0.0965,0.50987 0.28939,0.71933 0.19844,0.19844 0.4327,0.29766 0.7028,0.29766 0.27009,0 0.5016,-0.0965 0.69453,-0.28939 0.19292,-0.19293 0.28939,-0.42168 0.28939,-0.68626 0,-0.27561 -0.10198,-0.51263 -0.30593,-0.71107 -0.19843,-0.20395 -0.4327,-0.30593 -0.7028,-0.30593 z m 4.25416,4.11402 -1.03301,8.36487 h 1.89342 l 1.02836,-8.36487 z m 2.47582,0 7.23986,9.2413 1.1312,-9.2413 h -1.88567 l -0.58498,4.77645 -3.74861,-4.77645 z m 12.38374,0 -1.0294,8.36487 h 3.23288 c 0.58429,0 1.09416,-0.0138 1.52962,-0.0413 0.43546,-0.0276 0.81029,-0.0689 1.12448,-0.12402 0.5898,-0.11575 1.1548,-0.32797 1.69499,-0.63665 0.46302,-0.28112 0.87367,-0.62012 1.23196,-1.017 0.35829,-0.40238 0.67249,-0.86816 0.94258,-1.39733 0.54019,-1.06935 0.81029,-2.23242 0.81029,-3.48919 0,-0.58048 -0.0591,-1.13306 -0.17415,-1.65933 h -1.94769 c 0.14187,0.48343 0.22015,1.00846 0.22015,1.58492 0,1.42764 -0.37483,2.61552 -1.12448,3.5636 -0.42995,0.55673 -0.93431,0.93707 -1.51309,1.14102 -0.59531,0.20946 -1.42214,0.31419 -2.48047,0.31419 h -1.43867 l 0.80925,-6.60373 z m 13.06018,0 -1.02939,8.36487 h 6.57324 l 0.22324,-1.76114 h -4.68809 l 0.52917,-4.29948 h 4.68809 l 0.19843,-1.63711 h -4.68808 l 0.0816,-0.66714 z m 11.65097,0 0.71934,1.51877 -4.84519,6.8461 h 2.21589 l 3.53053,-5.0767 2.37298,5.0767 h 1.98438 l -3.18327,-6.64766 1.2113,-1.71721 z m 9.60045,0 -1.0294,8.36487 h 6.57273 l 0.22324,-1.76114 h -4.68757 l 0.52917,-4.29948 h 4.68757 l 0.19843,-1.63711 h -4.68757 l 0.0816,-0.66714 z m 9.94306,0 -1.0294,8.36487 h 3.23288 c 0.58429,0 1.09417,-0.0138 1.52962,-0.0413 0.43546,-0.0276 0.81029,-0.0689 1.12448,-0.12402 0.5898,-0.11575 1.1548,-0.32797 1.69499,-0.63665 0.46302,-0.28112 0.87368,-0.62012 1.23197,-1.017 0.35829,-0.40238 0.67248,-0.86816 0.94257,-1.39733 0.54019,-1.06935 0.81029,-2.23242 0.81029,-3.48919 0,-0.58048 -0.0591,-1.13306 -0.17415,-1.65933 h -1.94768 c 0.14187,0.48343 0.22014,1.00846 0.22014,1.58492 0,1.42764 -0.37483,2.61552 -1.12448,3.5636 -0.42995,0.55673 -0.93431,0.93707 -1.51309,1.14102 -0.59531,0.20946 -1.42213,0.31419 -2.48047,0.31419 h -1.43867 l 0.80926,-6.60373 z m -64.75729,0.57619 -0.95911,7.78868 h 1.82728 l 0.95911,-7.78868 z" />
      <rect
         style="fill:#ff0b0b;fill-opacity:1;stroke-width:0.0665303"
         id="rect2"
         width="82.85881"
         height="1.3226932"
         x="141.69667"
         y="188.05655" />
    </g>
  </g>
</svg>
