<?xml version="1.0" encoding="UTF-8" standalone="no"?>
<svg
   height="18"
   viewBox="0 -960 720 720"
   width="18"
   fill="#e3e3e3"
   version="1.1"
   id="svg1"
   xmlns="http://www.w3.org/2000/svg"
   xmlns:svg="http://www.w3.org/2000/svg">
  <defs
     id="defs1" />
  <path
     d="M 360,-240 Q 210,-240 105,-345 0,-450 0,-600 q 0,-150 105,-255 105,-105 255,-105 14,0 27.5,1 13.5,1 26.5,3 -41,29 -65.5,75.5 Q 324,-834 324,-780 q 0,90 63,153 63,63 153,63 55,0 101,-24.5 46,-24.5 75,-65.5 2,13 3,26.5 1,13.5 1,27.5 0,150 -105,255 -105,105 -255,105 z"
     id="path1" />
</svg>
