<?xml version="1.0" encoding="UTF-8" standalone="no"?>
<svg
   height="24"
   viewBox="0 -960 960 960"
   width="24"
   fill="#1D1C27"
   version="1.1"
   id="svg1"
   xmlns="http://www.w3.org/2000/svg"
   xmlns:svg="http://www.w3.org/2000/svg">
  <defs
     id="defs1" />
  <path
     d="m 480,-280 q -83,0 -141.5,-58.5 Q 280,-397 280,-480 280,-563 338.5,-621.5 397,-680 480,-680 q 83,0 141.5,58.5 58.5,58.5 58.5,141.5 0,83 -58.5,141.5 Q 563,-280 480,-280 Z M 200,-440 H 40 v -80 h 160 z m 720,0 H 760 v -80 H 920 Z M 440,-760 v -160 h 80 v 160 z m 0,720 v -160 h 80 v 160 z m -184,-610 -101,-97 57,-59 96,100 z m 492,496 -97,-101 53,-55 101,97 z m -98,-550 97,-101 59,57 -100,96 z m -496,492 101,-97 55,53 -97,101 z"
     id="path1" />
</svg>
